<svg width="15" height="21" viewBox="0 0 15 21" fill="none" xmlns="http://www.w3.org/2000/svg">
<path d="M2.19836 20.382V15.55H3.69836V18.118L7.32036 16.584L10.9704 18.121V15.55H12.4704V20.379L7.32236 18.213L2.19836 20.382Z" fill="#9BA6B2"/>
<path d="M13.9944 7.5L14.6044 5.87C14.6855 5.64984 14.6901 5.4088 14.6175 5.18568C14.545 4.96256 14.3995 4.77036 14.2044 4.64L12.7244 3.67L12.2344 1.99C12.1701 1.77432 12.0382 1.58501 11.8582 1.44998C11.6781 1.31495 11.4594 1.24134 11.2344 1.24H11.2044L9.39439 1.31L7.96439 0.21C7.78264 0.0736868 7.56158 0 7.33439 0C7.1072 0 6.88614 0.0736868 6.70439 0.21L5.27439 1.31L3.46439 1.24H3.43439C3.20934 1.24134 2.99067 1.31495 2.81062 1.44998C2.63058 1.58501 2.49868 1.77432 2.43439 1.99L1.94439 3.67L0.464387 4.64C0.269316 4.77036 0.123787 4.96256 0.0512289 5.18568C-0.0213292 5.4088 -0.0166944 5.64984 0.0643872 5.87L0.674387 7.5L0.0643872 9.13C-0.0166944 9.35016 -0.0213292 9.5912 0.0512289 9.81432C0.123787 10.0374 0.269316 10.2296 0.464387 10.36L1.94439 11.33L2.43439 13.01C2.49868 13.2257 2.63058 13.415 2.81062 13.55C2.99067 13.6851 3.20934 13.7587 3.43439 13.76H3.46439L5.27439 13.69L6.70439 14.79C6.88614 14.9263 7.1072 15 7.33439 15C7.56158 15 7.78264 14.9263 7.96439 14.79L9.39439 13.69L11.2044 13.76H11.2344C11.4594 13.7587 11.6781 13.6851 11.8582 13.55C12.0382 13.415 12.1701 13.2257 12.2344 13.01L12.7244 11.33L14.2044 10.36C14.3995 10.2296 14.545 10.0374 14.6175 9.81432C14.6901 9.5912 14.6855 9.35016 14.6044 9.13L13.9944 7.5ZM8.57439 9.4L7.33439 8.75L6.09439 9.4L6.33439 8.03L5.33439 7.05L6.71439 6.85L7.33439 5.6L7.95439 6.85L9.33439 7.05L8.33439 8.03L8.57439 9.4Z" fill="#9BA6B2"/>
</svg>
