<svg width="24" height="23" viewBox="0 0 24 23" fill="none" xmlns="http://www.w3.org/2000/svg">
<path fill-rule="evenodd" clip-rule="evenodd" d="M11.4456 5.99874L11.464 9.38843C11.4658 9.64747 11.3588 9.89496 11.1695 10.072L3.1803 17.5395C2.43167 18.2393 2.39193 19.4171 3.09167 20.1657C3.79142 20.9144 4.96928 20.9541 5.71791 20.2544L13.7071 12.7868C13.8964 12.6098 14.1506 12.5198 14.4089 12.539L17.7896 12.7859L21.9888 8.86085L21.8616 6.43635L19.3083 8.82297C18.5604 9.52208 17.3818 9.48297 16.6821 8.73435L15.4133 7.37692C14.7135 6.62829 14.7539 5.44979 15.5019 4.75068L18.0552 2.36406L15.6448 2.07369L11.4456 5.99874ZM1.73354 21.4346C0.33405 19.9373 0.413547 17.5816 1.91079 16.1821L9.60335 8.99176L9.58429 5.6027C9.58319 5.34303 9.68946 5.09618 9.8795 4.91855L14.6916 0.420638C14.8918 0.233489 15.165 0.143455 15.4373 0.176308L20.2575 0.757673C21.0443 0.855213 21.3527 1.82463 20.7812 2.3588L16.77 6.10812L18.0388 7.46555L22.05 3.71623C22.6242 3.17952 23.5691 3.55781 23.6122 4.34672L23.8673 9.19507C23.8817 9.469 23.7734 9.7355 23.5732 9.92265L18.7611 14.4206C18.5711 14.5982 18.3176 14.6876 18.0586 14.669L14.6786 14.4215L6.98601 21.6118C5.48877 23.0113 3.13303 22.9318 1.73354 21.4346Z" fill="#ACAFC8"/>
</svg>
