<svg width="29" height="37" viewBox="0 0 29 37" fill="none" xmlns="http://www.w3.org/2000/svg">
<path fill-rule="evenodd" clip-rule="evenodd" d="M16.6706 4.60196L17.9192 2.74728C18.2793 2.21182 18.1334 1.48807 17.5921 1.13148C17.0496 0.773728 16.3199 0.918478 15.9598 1.45394L13.6061 4.95148C13.3249 5.37043 13.3649 5.88471 13.6061 6.24482L15.9598 9.74119C16.3199 10.2755 17.0496 10.4214 17.5921 10.0648C18.1334 9.70706 18.2793 8.98331 17.9192 8.44785L16.9436 6.99917C22.3065 8.08303 26.3548 12.7915 26.3548 18.4191C26.3548 23.2583 23.415 27.5219 18.8654 29.2801C18.2605 29.5143 17.9604 30.191 18.197 30.79C18.4323 31.3855 19.1102 31.6879 19.721 31.4526C25.1815 29.3401 28.7084 24.2245 28.7084 18.4191C28.7084 11.4099 23.4703 5.6058 16.6706 4.60196Z" fill="#ACAFC8"/>
<path fill-rule="evenodd" clip-rule="evenodd" d="M12.5028 32.5724L11.2542 34.4271C10.8941 34.9626 11.04 35.6863 11.5813 36.0429C12.1238 36.4006 12.8535 36.2559 13.2136 35.7204L15.5673 32.2229C15.8485 31.8039 15.8085 31.2897 15.5673 30.9296L13.2136 27.4332C12.8535 26.8989 12.1238 26.753 11.5813 27.1096C11.04 27.4673 10.8941 28.1911 11.2542 28.7265L12.2298 30.1752C6.86693 29.0913 2.81863 24.3828 2.81863 18.7552C2.81863 13.9161 5.75836 9.65243 10.308 7.89424C10.9129 7.66005 11.213 6.98337 10.9764 6.38437C10.7411 5.78889 10.0632 5.48644 9.45243 5.72181C3.99193 7.83422 0.464966 12.9499 0.464966 18.7552C0.464966 25.7644 5.70304 31.5686 12.5028 32.5724Z" fill="#ACAFC8"/>
</svg>
