<svg width="32" height="33" viewBox="0 0 32 33" fill="none" xmlns="http://www.w3.org/2000/svg">
<path d="M29.5113 22.3144C28.6855 22.5943 27.8286 22.7962 26.9645 22.9146C19.4964 23.9382 12.5881 18.6952 11.5646 11.2272C11.1763 8.394 11.67 5.56216 12.9923 3.03783C13.1022 2.82802 13.0734 2.5725 12.9194 2.39253C12.7655 2.21256 12.5176 2.14428 12.2933 2.22039C5.584 4.49442 1.41348 11.2461 2.37677 18.2746C2.9146 22.1988 4.94838 25.6787 8.10359 28.0733C11.2587 30.4678 15.1575 31.4903 19.0817 30.9525C21.4643 30.626 23.7505 29.7181 25.693 28.3271C27.5731 26.9808 29.1351 25.1843 30.2103 23.1318C30.3202 22.922 30.2914 22.6665 30.1374 22.4865C29.9835 22.3066 29.7356 22.2384 29.5113 22.3144ZM18.9244 29.8047C11.4564 30.8283 4.54806 25.5853 3.52454 18.1173C2.70154 12.1124 5.94323 6.3267 11.3452 3.84298C10.3841 6.22501 10.0632 8.80445 10.4168 11.3845C10.9546 15.3087 12.9885 18.7886 16.1436 21.1832C19.2988 23.5778 23.1975 24.6002 27.1218 24.0624C27.5709 24.0009 28.0181 23.9185 28.4608 23.816C26.3004 27.0663 22.8264 29.27 18.9244 29.8047Z" fill="#ACAFC8"/>
<path d="M28.7331 9.22242C28.6126 8.85141 28.2978 8.58605 27.9117 8.52992L25.7488 8.21562L24.7815 6.25568C24.6088 5.90581 24.2592 5.68848 23.869 5.68848C23.4789 5.68848 23.1293 5.90587 22.9567 6.25568L21.9894 8.21562L19.8265 8.52992C19.4403 8.58605 19.1256 8.85135 19.0051 9.22242C18.8845 9.59342 18.9832 9.99311 19.2626 10.2654L20.8277 11.791L20.4582 13.9452C20.3923 14.3297 20.5474 14.711 20.863 14.9404C21.1787 15.1697 21.5893 15.1994 21.9346 15.0178L23.8691 14.0008L25.8037 15.0178C25.9539 15.0968 26.1165 15.1358 26.2781 15.1358C26.4882 15.1358 26.6969 15.0699 26.8753 14.9404C27.1909 14.711 27.346 14.3297 27.2801 13.9452L26.9105 11.791L28.4757 10.2654C28.755 9.99311 28.8536 9.59348 28.7331 9.22242ZM25.8838 11.174C25.7472 11.3071 25.6849 11.4989 25.7172 11.6868L26.0899 13.8595L24.1386 12.8337C23.9699 12.745 23.7682 12.745 23.5995 12.8337L21.6482 13.8595L22.0209 11.6868C22.0531 11.4989 21.9908 11.3071 21.8543 11.1741L20.2757 9.6353L22.4573 9.31828C22.6459 9.29088 22.8091 9.17237 22.8934 9.00143L23.869 7.02463L24.8447 9.00143C24.9291 9.17237 25.0921 9.29088 25.2808 9.31828L27.4623 9.6353L25.8838 11.174Z" fill="#ACAFC8"/>
</svg>
