<svg width="27" height="30" viewBox="0 0 27 30" fill="none" xmlns="http://www.w3.org/2000/svg">
<path d="M26.2918 19.1212L25.8004 17.287L21.4913 18.4417L15.7433 15.1229L21.4913 11.8042L25.8004 12.9589L26.2918 11.1246L23.8168 10.4614L26.7895 8.74509L25.8399 7.10062L22.8675 8.81687L23.5306 6.34175L21.6964 5.85031L20.5417 10.1597L14.7939 13.4783V6.84085L17.9484 3.68617L16.6057 2.34344L14.7939 4.15526V0.722771H12.895V4.15526L11.0832 2.34344L9.74048 3.68617L12.895 6.84085V13.4783L7.14712 10.1597L5.99245 5.85031L4.15828 6.34175L4.82138 8.81687L1.84894 7.10062L0.89941 8.74509L3.87205 10.4614L1.39705 11.1246L1.8885 12.9589L6.1976 11.8042L11.9456 15.1229L6.1976 18.4417L1.8885 17.287L1.39705 19.1212L3.87205 19.7845L0.89941 21.5008L1.84894 23.1453L4.82138 21.429L4.15828 23.9041L5.99245 24.3956L7.14712 20.0862L12.895 16.7675V23.405L9.74048 26.5597L11.0832 27.9024L12.895 26.0906V29.5231H14.7939V26.0906L16.6057 27.9024L17.9484 26.5597L14.7939 23.405V16.7675L20.5417 20.0862L21.6964 24.3956L23.5306 23.9041L22.8675 21.429L25.8399 23.1453L26.7895 21.5008L23.8168 19.7845L26.2918 19.1212Z" fill="#ACAFC8"/>
</svg>
