<svg width="32" height="33" viewBox="0 0 32 33" fill="none" xmlns="http://www.w3.org/2000/svg">
<path fill-rule="evenodd" clip-rule="evenodd" d="M14.852 30.2754H16.9579V26.9051C16.9579 26.4049 17.3106 25.9732 17.8012 25.8732C18.9405 25.6426 20.025 25.1972 21.0253 24.5528C21.4401 24.2844 21.9887 24.3412 22.3404 24.6929L24.3283 26.6808L25.9982 25.0109L24.0103 23.023C23.6597 22.6723 23.6018 22.1259 23.8692 21.7089C24.5157 20.7055 24.9611 19.621 25.1896 18.4838C25.2896 17.9932 25.7213 17.6405 26.2225 17.6405H29.5928V15.5346H26.2225C25.7213 15.5346 25.2896 15.1819 25.1896 14.6912C24.9611 13.5541 24.5157 12.4696 23.8692 11.4662C23.6018 11.0492 23.6597 10.5027 24.0103 10.1521L25.9982 8.16422L24.3283 6.4943L22.3404 8.4822C21.9887 8.83282 21.4401 8.89073 21.0253 8.62224C20.025 7.97785 18.9405 7.53247 17.8012 7.30188C17.3106 7.20186 16.9579 6.77016 16.9579 6.27003V2.89964H14.852V6.27003C14.852 6.77016 14.4993 7.20186 14.0086 7.30188C12.8694 7.53247 11.7849 7.97785 10.7846 8.62224C10.3666 8.89073 9.8191 8.83282 9.46953 8.4822L7.48163 6.4943L5.8117 8.16422L7.79961 10.1521C8.15023 10.5027 8.20814 11.0503 7.93964 11.4672C7.29526 12.4675 6.84988 13.552 6.61929 14.6912C6.51926 15.1819 6.08757 15.5346 5.58743 15.5346H2.21705V17.6405H5.58743C6.08757 17.6405 6.51926 17.9932 6.61929 18.4838C6.84988 19.6231 7.29526 20.7076 7.93964 21.7079C8.20814 22.1248 8.15023 22.6723 7.79961 23.023L5.8117 25.0109L7.48163 26.6808L9.46953 24.6929C9.8191 24.3423 10.3666 24.2833 10.7846 24.5528C11.7849 25.1972 12.8694 25.6426 14.0086 25.8732C14.4993 25.9732 14.852 26.4049 14.852 26.9051V30.2754ZM18.0093 32.3812H13.7977C13.2165 32.3812 12.7448 31.9095 12.7448 31.3283V27.7315C11.9256 27.4988 11.1338 27.1745 10.3778 26.7607L8.22459 28.9139C7.8129 29.3256 7.14746 29.3256 6.73577 28.9139L3.57702 25.7552C3.16533 25.3435 3.16533 24.6781 3.57702 24.2664L5.73023 22.1132C5.31644 21.3572 4.99214 20.5654 4.75945 19.7462H1.16269C0.581478 19.7462 0.109772 19.2745 0.109772 18.6933V14.4816C0.109772 13.9004 0.581478 13.4287 1.16269 13.4287H4.75945C4.99214 12.6095 5.31644 11.8178 5.73023 11.0618L3.57702 8.90855C3.16533 8.49686 3.16533 7.83142 3.57702 7.41973L6.73577 4.26098C7.14746 3.84929 7.8129 3.84929 8.22459 4.26098L10.3778 6.41419C11.1338 6.0004 11.9256 5.6761 12.7448 5.44341V1.84665C12.7448 1.26544 13.2165 0.793732 13.7977 0.793732H18.0093C18.5916 0.793732 19.0622 1.26544 19.0622 1.84665V5.44341C19.8814 5.6761 20.6722 6.0004 21.4292 6.41419L23.5824 4.26098C23.9941 3.84929 24.6595 3.84929 25.0712 4.26098L28.23 7.41973C28.6417 7.83142 28.6417 8.49686 28.23 8.90855L26.0768 11.0618C26.4906 11.8188 26.8149 12.6106 27.0476 13.4287H30.6443C31.2266 13.4287 31.6972 13.9004 31.6972 14.4816V18.6933C31.6972 19.2745 31.2266 19.7462 30.6443 19.7462H27.0476C26.8149 20.5643 26.4906 21.3561 26.0768 22.1132L28.23 24.2664C28.6417 24.6781 28.6417 25.3435 28.23 25.7552L25.0712 28.9139C24.6595 29.3256 23.9941 29.3256 23.5824 28.9139L21.4292 26.7607C20.6722 27.1745 19.8814 27.4988 19.0622 27.7315V31.3283C19.0622 31.9095 18.5916 32.3812 18.0093 32.3812Z" fill="#ACAFC8"/>
<path fill-rule="evenodd" clip-rule="evenodd" d="M15.9038 12.3759C13.581 12.3759 11.6921 14.2648 11.6921 16.5875C11.6921 18.9102 13.581 20.7992 15.9038 20.7992C18.2265 20.7992 20.1154 18.9102 20.1154 16.5875C20.1154 14.2648 18.2265 12.3759 15.9038 12.3759ZM15.9034 22.905C12.4193 22.905 9.58588 20.0717 9.58588 16.5876C9.58588 13.1035 12.4193 10.2701 15.9034 10.2701C19.3875 10.2701 22.2209 13.1035 22.2209 16.5876C22.2209 20.0717 19.3875 22.905 15.9034 22.905Z" fill="#ACAFC8"/>
</svg>
