<svg width="25" height="29" viewBox="0 0 25 29" fill="none" xmlns="http://www.w3.org/2000/svg">
<path fill-rule="evenodd" clip-rule="evenodd" d="M3.35204 17.3746C3.35204 12.2518 7.51973 8.08416 12.6425 8.08416C17.7661 8.08416 21.9329 12.2518 21.9329 17.3746C21.9329 22.4973 17.7652 26.665 12.6425 26.665C7.51973 26.665 3.35204 22.4973 3.35204 17.3746ZM14.5006 4.36799C14.5006 5.39272 13.6681 6.22607 12.6425 6.22607C11.6177 6.22607 10.7844 5.39272 10.7844 4.36799C10.7844 3.34325 11.6177 2.5099 12.6425 2.5099C13.6681 2.5099 14.5006 3.34325 14.5006 4.36799ZM1.49396 17.3746C1.49396 23.5221 6.495 28.5231 12.6425 28.5231C18.789 28.5231 23.791 23.5221 23.791 17.3746C23.791 12.2416 20.2996 7.91972 15.5699 6.62928C16.0576 6.00125 16.3586 5.22271 16.3586 4.36799C16.3586 2.31852 14.6919 0.651817 12.6425 0.651817C10.593 0.651817 8.9263 2.31852 8.9263 4.36799C8.9263 5.22271 9.22824 6.00125 9.71413 6.62928C4.9853 7.91972 1.49396 12.2416 1.49396 17.3746Z" fill="#ACAFC8"/>
<path fill-rule="evenodd" clip-rule="evenodd" d="M0.838482 9.28546L4.55465 5.56929C4.91791 5.20603 5.50506 5.20603 5.86832 5.56929C6.23158 5.93254 6.23158 6.5197 5.86832 6.88295L2.15215 10.5991C1.78889 10.9624 1.20174 10.9624 0.838482 10.5991C0.475226 10.2359 0.475226 9.64871 0.838482 9.28546Z" fill="#ACAFC8"/>
<path fill-rule="evenodd" clip-rule="evenodd" d="M23.1355 10.5991L19.4193 6.88295C19.0561 6.5197 19.0561 5.93254 19.4193 5.56929C19.7826 5.20603 20.3697 5.20603 20.733 5.56929L24.4492 9.28546C24.8124 9.64871 24.8124 10.2359 24.4492 10.5991C24.0859 10.9624 23.4988 10.9624 23.1355 10.5991Z" fill="#ACAFC8"/>
<path fill-rule="evenodd" clip-rule="evenodd" d="M8.92743 16.4456H11.7146V11.8004C11.7146 11.2866 12.1308 10.8713 12.6436 10.8713C13.1564 10.8713 13.5726 11.2866 13.5726 11.8004V17.3746C13.5726 17.8884 13.1564 18.3037 12.6436 18.3037H8.92743C8.41366 18.3037 7.99838 17.8884 7.99838 17.3746C7.99838 16.8609 8.41366 16.4456 8.92743 16.4456Z" fill="#ACAFC8"/>
</svg>
