<svg width="32" height="28" viewBox="0 0 32 28" fill="none" xmlns="http://www.w3.org/2000/svg">
<path d="M31.2121 0.58086H0.731911C0.608917 0.58093 0.490981 0.62982 0.404012 0.71679C0.317042 0.80376 0.268152 0.921696 0.268082 1.04469V15.2405C0.268152 15.3635 0.317042 15.4814 0.404012 15.5684C0.490981 15.6554 0.608917 15.7043 0.731911 15.7043H2.61373V17.3598C2.6138 17.4828 2.66269 17.6007 2.74966 17.6877C2.83663 17.7747 2.95457 17.8236 3.07756 17.8237H28.8686C28.9916 17.8236 29.1095 17.7747 29.1965 17.6877C29.2835 17.6007 29.3324 17.4828 29.3324 17.3598V15.7043H31.2142C31.3372 15.7043 31.4552 15.6554 31.5421 15.5684C31.6291 15.4814 31.678 15.3635 31.6781 15.2405V1.04469C31.678 0.983609 31.6659 0.923137 31.6425 0.86674C31.619 0.810343 31.5847 0.75913 31.5414 0.716039C31.4981 0.672947 31.4467 0.638825 31.3902 0.615628C31.3337 0.592431 31.2732 0.580616 31.2121 0.58086ZM3.54139 16.8971V15.2509C3.54139 15.2474 3.54139 15.244 3.54139 15.2405C3.54139 15.2371 3.54139 15.2336 3.54139 15.2302V13.584H28.4026V15.2312V15.2416C28.4026 15.2416 28.4026 15.2485 28.4026 15.2519V16.8971H3.54139ZM30.7483 14.7767H29.3303V13.1191C29.3303 12.9961 29.2814 12.8781 29.1945 12.7911C29.1075 12.7041 28.9895 12.6553 28.8665 12.6553H3.0765C2.95349 12.6553 2.83551 12.7041 2.74853 12.7911C2.66154 12.8781 2.61267 12.9961 2.61267 13.1191V14.7767H1.19574V1.50852H30.7483V14.7767Z" fill="#ACAFC8" stroke="#ACAFC8" stroke-width="0.464521"/>
<path d="M24.5864 14.7767H7.35843C7.23541 14.7767 7.11744 14.8256 7.03045 14.9126C6.94347 14.9995 6.8946 15.1175 6.8946 15.2405C6.8946 15.3635 6.94347 15.4815 7.03045 15.5685C7.11744 15.6555 7.23541 15.7044 7.35843 15.7044H24.5864C24.7094 15.7044 24.8274 15.6555 24.9144 15.5685C25.0013 15.4815 25.0502 15.3635 25.0502 15.2405C25.0502 15.1175 25.0013 14.9995 24.9144 14.9126C24.8274 14.8256 24.7094 14.7767 24.5864 14.7767Z" fill="#ACAFC8" stroke="#ACAFC8" stroke-width="0.464521"/>
<path d="M7.53712 22.3952C7.74353 22.2455 7.91257 22.0501 8.03105 21.8244C8.14953 21.5986 8.21424 21.3485 8.22014 21.0936C8.22014 20.9705 8.17127 20.8526 8.08429 20.7656C7.9973 20.6786 7.87933 20.6297 7.75631 20.6297C7.6333 20.6297 7.51532 20.6786 7.42833 20.7656C7.34135 20.8526 7.29248 20.9705 7.29248 21.0936C7.29248 21.3552 7.17692 21.4704 6.91532 21.7066C6.70463 21.8521 6.5324 22.0465 6.41343 22.2733C6.29446 22.5 6.23231 22.7522 6.23231 23.0082C6.23231 23.2643 6.29446 23.5165 6.41343 23.7432C6.5324 23.9699 6.70463 24.1644 6.91532 24.3099C7.17692 24.546 7.29248 24.6613 7.29248 24.9229C7.29248 25.1845 7.17692 25.2993 6.91559 25.5352C6.70912 25.6847 6.54002 25.88 6.42149 26.1057C6.30296 26.3314 6.23821 26.5814 6.2323 26.8363C6.2323 26.9593 6.28117 27.0773 6.36815 27.1643C6.45514 27.2513 6.57311 27.3001 6.69613 27.3001C6.81914 27.3001 6.93712 27.2513 7.02411 27.1643C7.11109 27.0773 7.15996 26.9593 7.15996 26.8363C7.15996 26.5752 7.27552 26.4599 7.53685 26.224C7.7476 26.0787 7.91989 25.8843 8.0389 25.6576C8.15792 25.431 8.2201 25.1788 8.2201 24.9228C8.2201 24.6668 8.15792 24.4146 8.0389 24.1879C7.91989 23.9613 7.7476 23.7669 7.53685 23.6216C7.27525 23.3851 7.15969 23.2698 7.15969 23.0082C7.15969 22.7466 7.27552 22.6313 7.53712 22.3952Z" fill="#ACAFC8" stroke="#ACAFC8" stroke-width="0.464521"/>
<path d="M11.9101 22.3952C12.1166 22.2455 12.2856 22.0501 12.4041 21.8244C12.5226 21.5986 12.5873 21.3485 12.5932 21.0936C12.5932 20.9705 12.5443 20.8526 12.4573 20.7656C12.3703 20.6786 12.2524 20.6297 12.1293 20.6297C12.0063 20.6297 11.8883 20.6786 11.8014 20.7656C11.7144 20.8526 11.6655 20.9705 11.6655 21.0936C11.6655 21.3552 11.55 21.4704 11.2884 21.7066C11.0777 21.8521 10.9054 22.0465 10.7865 22.2733C10.6675 22.5 10.6053 22.7522 10.6053 23.0082C10.6053 23.2643 10.6675 23.5165 10.7865 23.7432C10.9054 23.9699 11.0777 24.1644 11.2884 24.3099C11.55 24.546 11.6655 24.6613 11.6655 24.9229C11.6655 25.1845 11.55 25.2993 11.2886 25.5352C11.0822 25.6847 10.9131 25.88 10.7945 26.1057C10.676 26.3314 10.6112 26.5814 10.6053 26.8363C10.6053 26.9593 10.6542 27.0773 10.7412 27.1643C10.8282 27.2513 10.9461 27.3001 11.0692 27.3001C11.1922 27.3001 11.3102 27.2513 11.3971 27.1643C11.4841 27.0773 11.533 26.9593 11.533 26.8363C11.533 26.5752 11.6486 26.4599 11.9099 26.224C12.1206 26.0787 12.2929 25.8843 12.4119 25.6576C12.5309 25.431 12.5931 25.1788 12.5931 24.9228C12.5931 24.6668 12.5309 24.4146 12.4119 24.1879C12.2929 23.9613 12.1206 23.7669 11.9099 23.6216C11.6483 23.3851 11.5327 23.2698 11.5327 23.0082C11.5327 22.7466 11.6486 22.6313 11.9101 22.3952Z" fill="#ACAFC8" stroke="#ACAFC8" stroke-width="0.464521"/>
<path d="M16.2832 22.3952C16.4896 22.2455 16.6586 22.0501 16.7771 21.8244C16.8956 21.5986 16.9603 21.3485 16.9662 21.0936C16.9662 20.9705 16.9173 20.8526 16.8304 20.7656C16.7434 20.6786 16.6254 20.6297 16.5024 20.6297C16.3794 20.6297 16.2614 20.6786 16.1744 20.7656C16.0874 20.8526 16.0385 20.9705 16.0385 21.0936C16.0385 21.3552 15.923 21.4704 15.6614 21.7066C15.4507 21.8521 15.2785 22.0465 15.1595 22.2733C15.0405 22.5 14.9784 22.7522 14.9784 23.0082C14.9784 23.2643 15.0405 23.5165 15.1595 23.7432C15.2785 23.9699 15.4507 24.1644 15.6614 24.3099C15.923 24.546 16.0385 24.6613 16.0385 24.9229C16.0385 25.1845 15.923 25.2993 15.6616 25.5352C15.4552 25.6847 15.2861 25.88 15.1676 26.1057C15.049 26.3314 14.9843 26.5814 14.9784 26.8363C14.9784 26.9593 15.0272 27.0773 15.1142 27.1643C15.2012 27.2513 15.3192 27.3001 15.4422 27.3001C15.5652 27.3001 15.6832 27.2513 15.7702 27.1643C15.8572 27.0773 15.906 26.9593 15.906 26.8363C15.906 26.5752 16.0216 26.4599 16.2829 26.224C16.4937 26.0787 16.6659 25.8843 16.785 25.6576C16.904 25.431 16.9662 25.1788 16.9662 24.9228C16.9662 24.6668 16.904 24.4146 16.785 24.1879C16.6659 23.9613 16.4937 23.7669 16.2829 23.6216C16.0213 23.3851 15.9058 23.2698 15.9058 23.0082C15.9058 22.7466 16.0216 22.6313 16.2832 22.3952Z" fill="#ACAFC8" stroke="#ACAFC8" stroke-width="0.464521"/>
<path d="M20.6562 22.3952C20.8626 22.2455 21.0317 22.0501 21.1501 21.8244C21.2686 21.5986 21.3333 21.3485 21.3392 21.0936C21.3392 20.9705 21.2904 20.8526 21.2034 20.7656C21.1164 20.6786 20.9984 20.6297 20.8754 20.6297C20.7524 20.6297 20.6344 20.6786 20.5474 20.7656C20.4604 20.8526 20.4116 20.9705 20.4116 21.0936C20.4116 21.3552 20.296 21.4704 20.0344 21.7066C19.8237 21.8521 19.6515 22.0465 19.5325 22.2733C19.4136 22.5 19.3514 22.7522 19.3514 23.0082C19.3514 23.2643 19.4136 23.5165 19.5325 23.7432C19.6515 23.9699 19.8237 24.1644 20.0344 24.3099C20.296 24.546 20.4116 24.6613 20.4116 24.9229C20.4116 25.1845 20.296 25.2993 20.0347 25.5352C19.8282 25.6847 19.6591 25.88 19.5406 26.1057C19.4221 26.3314 19.3573 26.5814 19.3514 26.8363C19.3514 26.9593 19.4003 27.0773 19.4872 27.1643C19.5742 27.2513 19.6922 27.3001 19.8152 27.3001C19.9382 27.3001 20.0562 27.2513 20.1432 27.1643C20.2302 27.0773 20.2791 26.9593 20.2791 26.8363C20.2791 26.5752 20.3946 26.4599 20.6559 26.224C20.8667 26.0787 21.039 25.8843 21.158 25.6576C21.277 25.431 21.3392 25.1788 21.3392 24.9228C21.3392 24.6668 21.277 24.4146 21.158 24.1879C21.039 23.9613 20.8667 23.7669 20.6559 23.6216C20.3943 23.3851 20.2788 23.2698 20.2788 23.0082C20.2788 22.7466 20.3946 22.6313 20.6562 22.3952Z" fill="#ACAFC8" stroke="#ACAFC8" stroke-width="0.464521"/>
<path d="M25.0293 22.3952C25.2357 22.2455 25.4047 22.0501 25.5232 21.8244C25.6417 21.5986 25.7064 21.3485 25.7123 21.0936C25.7123 20.9705 25.6634 20.8526 25.5764 20.7656C25.4894 20.6786 25.3715 20.6297 25.2484 20.6297C25.1254 20.6297 25.0075 20.6786 24.9205 20.7656C24.8335 20.8526 24.7846 20.9705 24.7846 21.0936C24.7846 21.3552 24.6691 21.4704 24.4075 21.7066C24.1968 21.8521 24.0245 22.0465 23.9056 22.2733C23.7866 22.5 23.7244 22.7522 23.7244 23.0082C23.7244 23.2643 23.7866 23.5165 23.9056 23.7432C24.0245 23.9699 24.1968 24.1644 24.4075 24.3099C24.6691 24.546 24.7846 24.6613 24.7846 24.9229C24.7846 25.1845 24.6691 25.2993 24.4077 25.5352C24.2013 25.6847 24.0322 25.88 23.9136 26.1057C23.7951 26.3314 23.7303 26.5814 23.7244 26.8363C23.7244 26.9593 23.7733 27.0773 23.8603 27.1643C23.9473 27.2513 24.0652 27.3001 24.1883 27.3001C24.3113 27.3001 24.4293 27.2513 24.5162 27.1643C24.6032 27.0773 24.6521 26.9593 24.6521 26.8363C24.6521 26.5752 24.7677 26.4599 25.029 26.224C25.2397 26.0787 25.412 25.8843 25.531 25.6576C25.65 25.431 25.7122 25.1788 25.7122 24.9228C25.7122 24.6668 25.65 24.4146 25.531 24.1879C25.412 23.9613 25.2397 23.7669 25.029 23.6216C24.7674 23.3851 24.6518 23.2698 24.6518 23.0082C24.6518 22.7466 24.7677 22.6313 25.0293 22.3952Z" fill="#ACAFC8" stroke="#ACAFC8" stroke-width="0.464521"/>
<path d="M3.913 5.48473C4.162 5.48473 4.4054 5.41089 4.61244 5.27255C4.81947 5.13422 4.98084 4.93759 5.07613 4.70755C5.17142 4.4775 5.19635 4.22437 5.14777 3.98015C5.09919 3.73594 4.97929 3.51161 4.80322 3.33554C4.62715 3.15947 4.40282 3.03957 4.15861 2.99099C3.91439 2.94241 3.66126 2.96734 3.43121 3.06263C3.20116 3.15792 3.00454 3.31928 2.8662 3.52632C2.72787 3.73335 2.65403 3.97676 2.65403 4.22576C2.65438 4.55955 2.78713 4.87957 3.02316 5.1156C3.25919 5.35162 3.5792 5.48438 3.913 5.48473ZM3.913 3.89446C3.97852 3.89446 4.04258 3.91389 4.09706 3.95029C4.15154 3.9867 4.19401 4.03844 4.21908 4.09898C4.24416 4.15952 4.25072 4.22613 4.23794 4.2904C4.22515 4.35467 4.1936 4.4137 4.14726 4.46003C4.10093 4.50637 4.0419 4.53792 3.97763 4.5507C3.91336 4.56349 3.84675 4.55693 3.78621 4.53185C3.72567 4.50677 3.67393 4.46431 3.63752 4.40983C3.60112 4.35534 3.58169 4.29129 3.58169 4.22576C3.58183 4.13794 3.61678 4.05375 3.67888 3.99165C3.74098 3.92955 3.82517 3.8946 3.913 3.89446Z" fill="#ACAFC8" stroke="#ACAFC8" stroke-width="0.464521"/>
<path d="M7.10839 5.48473C7.35739 5.48473 7.6008 5.41089 7.80784 5.27255C8.01487 5.13422 8.17624 4.93759 8.27152 4.70755C8.36681 4.4775 8.39174 4.22437 8.34317 3.98015C8.29459 3.73594 8.17468 3.51161 7.99861 3.33554C7.82254 3.15947 7.59822 3.03957 7.354 2.99099C7.10979 2.94241 6.85665 2.96734 6.62661 3.06263C6.39656 3.15792 6.19994 3.31928 6.0616 3.52632C5.92326 3.73335 5.84943 3.97676 5.84943 4.22576C5.84978 4.55955 5.98253 4.87957 6.21856 5.1156C6.45458 5.35162 6.7746 5.48438 7.10839 5.48473ZM7.10839 3.89446C7.17392 3.89446 7.23797 3.91389 7.29246 3.95029C7.34694 3.9867 7.3894 4.03844 7.41448 4.09898C7.43955 4.15952 7.44612 4.22613 7.43333 4.2904C7.42055 4.35467 7.38899 4.4137 7.34266 4.46003C7.29633 4.50637 7.23729 4.53792 7.17303 4.5507C7.10876 4.56349 7.04214 4.55693 6.98161 4.53185C6.92107 4.50677 6.86932 4.46431 6.83292 4.40983C6.79652 4.35534 6.77709 4.29129 6.77709 4.22576C6.77716 4.13792 6.81208 4.05369 6.8742 3.99157C6.93632 3.92945 7.02055 3.89453 7.10839 3.89446Z" fill="#ACAFC8" stroke="#ACAFC8" stroke-width="0.464521"/>
<path d="M21.8475 4.68968H28.827C28.95 4.68968 29.0679 4.64081 29.1549 4.55382C29.2419 4.46684 29.2908 4.34886 29.2908 4.22585C29.2908 4.10283 29.2419 3.98485 29.1549 3.89787C29.0679 3.81088 28.95 3.76202 28.827 3.76202H21.8475C21.7245 3.76202 21.6065 3.81088 21.5195 3.89787C21.4326 3.98485 21.3837 4.10283 21.3837 4.22585C21.3837 4.34886 21.4326 4.46684 21.5195 4.55382C21.6065 4.64081 21.7245 4.68968 21.8475 4.68968Z" fill="#ACAFC8" stroke="#ACAFC8" stroke-width="0.464521"/>
</svg>
