<svg width="27" height="16" viewBox="0 0 27 16" fill="none" xmlns="http://www.w3.org/2000/svg">
<path fill-rule="evenodd" clip-rule="evenodd" d="M25.9569 15.0012C23.7553 15.0012 22.5934 14.4735 21.5676 14.0072C19.2221 12.9415 16.8748 12.7715 14.1564 14.0072C11.0175 15.4351 8.17513 15.2772 5.38044 14.0072C4.42489 13.5724 3.52223 13.1617 1.6779 13.1617C1.19839 13.1617 0.810791 12.7502 0.810791 12.242C0.810791 11.7338 1.19839 11.3222 1.6779 11.3222C3.87775 11.3222 5.03967 11.8499 6.06372 12.3163C8.42572 13.3912 10.7721 13.5445 13.474 12.3163C16.6251 10.8837 19.4666 11.0509 22.2509 12.3163C23.2073 12.7511 24.1108 13.1617 25.9569 13.1617C26.4364 13.1617 26.824 13.5733 26.824 14.0815C26.824 14.5897 26.4364 15.0012 25.9569 15.0012Z" fill="#ACAFC8"/>
<path fill-rule="evenodd" clip-rule="evenodd" d="M25.9569 9.4266C23.7553 9.4266 22.5934 8.89872 21.5676 8.43246C19.2221 7.36659 16.8748 7.19737 14.1564 8.43246C11.0175 9.86067 8.17513 9.70341 5.38044 8.43246C4.42489 7.99747 3.52223 7.5873 1.6779 7.5873C1.19839 7.5873 0.810791 7.1753 0.810791 6.66765C0.810791 6.16001 1.19839 5.74801 1.6779 5.74801C3.87775 5.74801 5.03967 6.27588 6.06372 6.74215C8.42572 7.81629 10.7721 7.9708 13.474 6.74215C16.6251 5.30933 19.4666 5.47671 22.2509 6.74215C23.2073 7.17714 24.1108 7.5873 25.9569 7.5873C26.4364 7.5873 26.824 7.9993 26.824 8.50695C26.824 9.0146 26.4364 9.4266 25.9569 9.4266Z" fill="#ACAFC8"/>
<path fill-rule="evenodd" clip-rule="evenodd" d="M25.9562 3.85238C23.7546 3.85238 22.5927 3.3245 21.5669 2.85824C19.2214 1.79237 16.8742 1.62315 14.1558 2.85824C11.0168 4.28645 8.17447 4.12919 5.37979 2.85824C4.42424 2.42325 3.52158 2.01308 1.67724 2.01308C1.19773 2.01308 0.810135 1.60108 0.810135 1.09344C0.810135 0.58579 1.19773 0.173788 1.67724 0.173788C3.87709 0.173788 5.03901 0.701666 6.06307 1.16793C8.42507 2.24208 10.7715 2.39658 13.4734 1.16793C16.6244 -0.264884 19.4659 -0.0975081 22.2502 1.16793C23.2066 1.60292 24.1102 2.01308 25.9562 2.01308C26.4357 2.01308 26.8233 2.42509 26.8233 2.93273C26.8233 3.44038 26.4357 3.85238 25.9562 3.85238Z" fill="#ACAFC8"/>
</svg>
