<svg width="17" height="21" viewBox="0 0 17 21" fill="none" xmlns="http://www.w3.org/2000/svg">
<path d="M14.06 0H6.06001C5.53055 0.00314852 5.02367 0.214873 4.64928 0.589266C4.27489 0.963658 4.06316 1.47054 4.06001 2V4.08H2.00001C1.73711 4.07907 1.47662 4.13018 1.23355 4.23036C0.990483 4.33054 0.769638 4.47782 0.583736 4.66372C0.397834 4.84963 0.250551 5.07047 0.150369 5.31354C0.0501876 5.55661 -0.000912688 5.8171 1.23375e-05 6.08V18.08C0.00159506 18.6099 0.212817 19.1177 0.587547 19.4925C0.962277 19.8672 1.47007 20.0784 2.00001 20.08H10C10.5295 20.0769 11.0364 19.8651 11.4107 19.4907C11.7851 19.1163 11.9969 18.6095 12 18.08V16H14.06C14.3229 16.0009 14.5834 15.9498 14.8265 15.8496C15.0695 15.7495 15.2904 15.6022 15.4763 15.4163C15.6622 15.2304 15.8095 15.0095 15.9097 14.7665C16.0098 14.5234 16.0609 14.2629 16.06 14V2C16.0584 1.47005 15.8472 0.962265 15.4725 0.587535C15.0977 0.212805 14.59 0.00158273 14.06 0ZM14.56 14C14.5615 14.0661 14.5496 14.1318 14.525 14.1931C14.5004 14.2544 14.4636 14.3102 14.4169 14.3569C14.3702 14.4036 14.3145 14.4404 14.2531 14.465C14.1918 14.4896 14.1261 14.5015 14.06 14.5H12V6.08C12 5.54957 11.7893 5.04086 11.4142 4.66579C11.0392 4.29071 10.5304 4.08 10 4.08H5.56001V2C5.56207 1.86803 5.61542 1.74205 5.70874 1.64873C5.80206 1.5554 5.92805 1.50206 6.06001 1.5H14.06C14.1926 1.5 14.3198 1.55268 14.4136 1.64645C14.5073 1.74021 14.56 1.86739 14.56 2V14Z" fill="#9BA6B2"/>
</svg>
