<svg width="46" height="46" viewBox="0 0 46 46" fill="none" xmlns="http://www.w3.org/2000/svg">
<rect width="46" height="46" rx="5" fill="#E5DEFB"/>
<path d="M20 13H15C13.8954 13 13 13.8954 13 15V30.95C13 32.0546 13.8954 32.95 15 32.95H20C21.1046 32.95 22 32.0546 22 30.95V15C22 13.8954 21.1046 13 20 13Z" fill="#380ABB"/>
<path d="M31 13H26C24.8954 13 24 13.8954 24 15V20C24 21.1046 24.8954 22 26 22H31C32.1046 22 33 21.1046 33 20V15C33 13.8954 32.1046 13 31 13Z" fill="#380ABB"/>
<path d="M31 24H26C24.8954 24 24 24.8954 24 26V31C24 32.1046 24.8954 33 26 33H31C32.1046 33 33 32.1046 33 31V26C33 24.8954 32.1046 24 31 24Z" fill="#380ABB"/>
</svg>
