<svg width="46" height="46" viewBox="0 0 46 46" fill="none" xmlns="http://www.w3.org/2000/svg">
<path d="M32.9998 23.685C32.871 25.5419 32.2269 27.3261 31.1398 28.8371C30.0527 30.3481 28.5657 31.5259 26.846 32.2381C25.1263 32.9504 23.242 33.1689 21.4049 32.8691C19.5679 32.5693 17.8508 31.7631 16.4468 30.541L23.2998 23.685H32.9998Z" fill="#9BA6B2"/>
<path d="M32.9998 22.287H23.7128V13C26.1192 13.1715 28.383 14.205 30.0889 15.9109C31.7948 17.6168 32.8283 19.8806 32.9998 22.287Z" fill="#9BA6B2"/>
<path d="M15.4588 29.553C14.2367 28.149 13.4305 26.4319 13.1307 24.5948C12.8309 22.7578 13.0494 20.8735 13.7616 19.1537C14.4739 17.434 15.6517 15.9471 17.1627 14.86C18.6736 13.7729 20.4579 13.1288 22.3148 13V22.7" fill="#9BA6B2"/>
</svg>
