<svg width="20" height="20" viewBox="0 0 20 20" fill="none" xmlns="http://www.w3.org/2000/svg">
<path d="M15.1417 16.2957L12.4717 18.9657C12.1467 19.2909 11.7608 19.5489 11.336 19.7249C10.9113 19.9009 10.456 19.9915 9.99623 19.9915C9.53646 19.9915 9.08119 19.9009 8.65643 19.7249C8.23168 19.5489 7.84576 19.2909 7.52073 18.9657L4.84973 16.2957L7.94973 13.2038L8.76073 14.0147C9.08838 14.3402 9.53144 14.5228 9.99323 14.5228C10.455 14.5228 10.8981 14.3402 11.2257 14.0147L12.0477 13.2038L15.1417 16.2957Z" fill="#9BA6B2"/>
<path d="M5.97375 11.2277L6.79575 12.0497L3.69575 15.1417L1.02575 12.4717C0.70056 12.1467 0.442593 11.7608 0.266591 11.336C0.0905888 10.9113 0 10.456 0 9.99625C0 9.53647 0.0905888 9.0812 0.266591 8.65645C0.442593 8.23169 0.70056 7.84577 1.02575 7.52075L3.69575 4.84975L6.79575 7.94975L5.97375 8.76075C5.64833 9.0884 5.4657 9.53145 5.4657 9.99325C5.4657 10.455 5.64833 10.8981 5.97375 11.2257V11.2277Z" fill="#9BA6B2"/>
<path d="M19.9957 9.99575C19.9963 10.4558 19.9059 10.9114 19.7296 11.3364C19.5534 11.7613 19.2948 12.1472 18.9687 12.4717L16.2987 15.1417L13.2067 12.0497L14.0177 11.2277C14.3431 10.9001 14.5258 10.457 14.5258 9.99525C14.5258 9.53345 14.3431 9.0904 14.0177 8.76275L13.2067 7.95175L16.2987 4.85175L18.9687 7.52175C19.2945 7.8461 19.5529 8.23165 19.7292 8.65623C19.9054 9.08081 19.996 9.53604 19.9957 9.99575Z" fill="#9BA6B2"/>
<path d="M15.1418 3.69575L12.0498 6.79575L11.2278 5.97375C10.9001 5.64833 10.4571 5.4657 9.99528 5.4657C9.53349 5.4657 9.09043 5.64833 8.76278 5.97375L7.95278 6.79575L4.85278 3.69575L7.52278 1.02575C7.84781 0.70056 8.23373 0.442593 8.65848 0.266591C9.08324 0.0905888 9.53851 0 9.99828 0C10.4581 0 10.9133 0.0905888 11.3381 0.266591C11.7628 0.442593 12.1488 0.70056 12.4738 1.02575L15.1418 3.69575Z" fill="#9BA6B2"/>
</svg>
