<svg width="20" height="20" viewBox="0 0 20 20" fill="none" xmlns="http://www.w3.org/2000/svg">
<path d="M19.9998 10.685C19.871 12.5419 19.2269 14.3261 18.1398 15.8371C17.0527 17.3481 15.5657 18.5259 13.846 19.2381C12.1263 19.9504 10.242 20.1689 8.40494 19.8691C6.56786 19.5693 4.85081 18.7631 3.44678 17.541L10.2998 10.685H19.9998Z" fill="#9BA6B2"/>
<path d="M19.9998 9.287H10.7128V0C13.1192 0.171494 15.383 1.20501 17.0889 2.91089C18.7948 4.61678 19.8283 6.88062 19.9998 9.287Z" fill="#9BA6B2"/>
<path d="M2.45879 16.553C1.23672 15.149 0.430471 13.4319 0.130662 11.5948C-0.169147 9.75775 0.0493683 7.87346 0.761648 6.15374C1.47393 4.43403 2.65174 2.94706 4.16269 1.85997C5.67365 0.772881 7.45786 0.128758 9.31479 0V9.7" fill="#9BA6B2"/>
</svg>
