<svg width="24" height="26" viewBox="0 0 24 26" fill="none" xmlns="http://www.w3.org/2000/svg">
<path d="M10.9793 0.283805L7.28748 3.97689L8.66588 5.3553L10.6945 3.3267L10.6945 11.129L12.6451 11.129L12.6451 3.3267L14.6723 5.3566L16.0521 3.97689L12.359 0.282506C12.2684 0.191875 12.1609 0.119982 12.0425 0.0709303C11.9241 0.021878 11.7972 -0.00336953 11.6691 -0.00336952C11.541 -0.00336952 11.4141 0.0218781 11.2957 0.0709303C11.1774 0.119982 11.0698 0.191875 10.9793 0.282506L10.9793 0.283805Z" fill="#9BA6B2"/>
<path d="M21.3862 14.3371C21.3862 15.613 21.1348 16.8765 20.6465 18.0554C20.1582 19.2342 19.4425 20.3054 18.5403 21.2076C17.638 22.1099 16.5669 22.8256 15.388 23.3139C14.2092 23.8022 12.9457 24.0535 11.6697 24.0535C10.3937 24.0535 9.13023 23.8022 7.95137 23.3139C6.77252 22.8256 5.70138 22.1099 4.79913 21.2076C3.89687 20.3054 3.18116 19.2342 2.69286 18.0554C2.20457 16.8765 1.95324 15.613 1.95324 14.3371C1.94582 12.1856 2.65959 10.0938 3.98054 8.39562L2.43568 7.20187C0.848812 9.24101 -0.00873892 11.7532 6.66303e-05 14.3371C0.000718815 16.1925 0.443889 18.021 1.29279 19.6709C2.1417 21.3207 3.37186 22.7443 4.88117 23.8235C6.39048 24.9027 8.13541 25.6064 9.97114 25.8761C11.8069 26.1458 13.6805 25.9738 15.4364 25.3743C17.1923 24.7749 18.78 23.7653 20.0676 22.4294C21.3552 21.0934 22.3056 19.4696 22.8399 17.6928C23.3742 15.9159 23.477 14.0373 23.1399 12.2127C22.8027 10.3882 22.0352 8.67038 20.9011 7.20187L19.3576 8.39562C20.679 10.0936 21.3932 12.1855 21.3862 14.3371Z" fill="#9BA6B2"/>
</svg>
